<?xml version="1.0" encoding="UTF-8"?>
<svg xmlns="http://www.w3.org/2000/svg" xmlns:xlink="http://www.w3.org/1999/xlink" width="100%" height="100%" viewBox="0 0 113 51" version="1.1">
<g id="surface1">
<path style=" stroke:none;fill-rule:nonzero;fill:rgb(85.490196%,12.54902%,15.686275%);fill-opacity:1;" d="M 0 0 L 112.945312 0 L 112.945312 50.984375 L 0 50.984375 Z M 0 0 "/>
<path style=" stroke:none;fill-rule:nonzero;fill:rgb(100%,100%,100%);fill-opacity:1;" d="M 50.875 26.316406 L 43.691406 26.234375 C 43.691406 23.847656 44.191406 19.984375 47.28125 19.984375 C 50.375 19.984375 50.875 24.011719 50.875 26.316406 Z M 99.328125 35.6875 L 99.328125 33.878906 L 93.398438 33.878906 L 93.398438 37.167969 C 93.398438 38.074219 92.980469 39.144531 91.894531 39.144531 C 90.808594 39.144531 90.472656 38.074219 90.472656 37.335938 L 90.472656 21.214844 L 98.742188 21.214844 L 98.742188 14.800781 L 90.472656 14.800781 L 90.472656 4.933594 L 84.960938 4.933594 C 84.875 9.703125 83.875 14.800781 78.027344 14.800781 C 77.523438 14.800781 77.023438 14.800781 76.4375 14.800781 C 76.105469 14.800781 75.855469 14.800781 75.519531 14.800781 L 75.519531 15.789062 C 73.515625 14.554688 71.675781 13.734375 69.171875 13.734375 C 63.324219 13.734375 59.730469 18.585938 59.730469 24.011719 C 59.730469 36.347656 73.515625 29.933594 73.515625 36.675781 C 73.515625 38.730469 72.511719 39.964844 70.339844 39.964844 C 67.164062 39.964844 65.914062 36.59375 65.746094 33.878906 L 59.898438 33.878906 L 59.898438 45.0625 L 65.746094 45.0625 L 65.746094 43.832031 C 68 44.816406 70.171875 45.96875 72.761719 45.96875 C 78.027344 45.96875 81.867188 40.457031 81.867188 35.523438 C 81.867188 34.949219 81.867188 34.457031 81.703125 33.796875 C 81.03125 29.6875 78.527344 26.5625 74.351562 25.738281 C 72.011719 25.328125 68.085938 25.328125 68.085938 22.203125 C 68.085938 20.804688 69.171875 19.40625 70.589844 19.40625 C 73.679688 19.40625 74.933594 22.039062 74.933594 24.671875 L 80.617188 24.671875 L 80.617188 21.214844 L 82.953125 21.214844 L 82.953125 36.675781 C 82.953125 41.363281 85.710938 46.132812 91.058594 46.132812 C 96.488281 46.132812 99.328125 40.542969 99.328125 35.6875 Z M 59.394531 32.234375 C 59.394531 32.070312 59.3125 31.824219 59.3125 31.660156 C 59.3125 31.332031 59.394531 30.917969 59.394531 30.589844 C 59.394531 23.191406 56.222656 13.652344 47.117188 13.652344 C 46.449219 13.652344 45.863281 13.734375 45.195312 13.816406 C 38.59375 14.554688 35.253906 22.941406 35.253906 28.863281 C 35.253906 30.425781 35.421875 32.316406 35.585938 34.125 L 31.078125 34.125 L 31.078125 37.582031 C 31.078125 38.484375 30.742188 39.800781 29.574219 39.800781 C 28.402344 39.800781 27.984375 38.730469 27.984375 37.828125 L 27.984375 21.378906 L 35.921875 21.378906 L 35.921875 14.800781 L 27.902344 14.800781 L 27.902344 4.933594 L 22.472656 4.933594 L 22.472656 5.425781 C 22.472656 10.609375 20.050781 14.964844 14.285156 14.964844 L 14.285156 21.546875 L 20.214844 21.546875 L 20.214844 35.9375 C 20.214844 41.609375 22.386719 46.789062 28.988281 46.789062 C 33.164062 46.789062 36.589844 43.007812 36.925781 39.144531 C 38.59375 43.335938 42.773438 46.132812 47.449219 46.132812 C 54.632812 46.132812 58.394531 40.375 59.0625 33.878906 L 52.796875 33.878906 C 52.796875 36.347656 51.292969 39.144531 48.453125 39.144531 C 46.613281 39.144531 45.109375 37.992188 44.527344 36.347656 C 44.109375 35.6875 43.859375 34.539062 43.859375 33.878906 L 43.859375 32.234375 L 59.394531 32.234375 "/>
</g>
</svg>
