<?xml version="1.0" standalone="no"?>
<!DOCTYPE svg PUBLIC "-//W3C//DTD SVG 20010904//EN"
 "http://www.w3.org/TR/2001/REC-SVG-20010904/DTD/svg10.dtd">
<svg version="1.0" xmlns="http://www.w3.org/2000/svg"
 width="214.000000pt" height="111.000000pt" viewBox="0 0 214.000000 111.000000"
 preserveAspectRatio="xMidYMid meet">

<g transform="translate(0.000000,111.000000) scale(0.100000,-0.100000)"
fill="#000000" stroke="none">
<path d="M569 1087 c-67 -45 -70 -59 -67 -372 3 -273 4 -281 26 -312 31 -44
96 -68 149 -54 77 21 103 73 103 208 l0 83 -55 0 -54 0 -3 -92 c-3 -88 -4 -93
-25 -96 -38 -5 -43 32 -43 288 0 207 2 241 16 255 9 9 23 14 31 11 8 -3 17 -6
19 -6 2 0 4 -34 4 -75 l0 -75 55 0 55 0 0 73 c0 85 -19 131 -69 164 -20 14
-49 23 -71 23 -22 0 -51 -9 -71 -23z"/>
<path d="M2006 1090 c-165 -50 -202 -256 -68 -371 53 -46 92 -105 92 -141 0
-74 -46 -124 -125 -135 l-46 -6 3 -46 3 -46 55 3 c66 5 120 31 154 75 32 42
56 109 56 156 0 55 -45 139 -112 209 -59 61 -60 64 -55 108 5 52 26 79 74 95
33 11 34 12 31 57 -3 51 -12 57 -62 42z"/>
<path d="M125 1078 c-2 -7 -27 -159 -55 -338 -28 -179 -54 -335 -57 -347 -5
-22 -2 -23 45 -23 59 0 52 -14 83 165 12 72 25 136 28 143 4 7 20 -59 36 -148
l28 -160 52 0 51 0 -48 293 c-26 160 -52 322 -59 360 l-11 67 -44 0 c-27 0
-46 -5 -49 -12z"/>
<path d="M930 1030 l0 -50 50 0 50 0 0 -305 0 -305 55 0 55 0 0 305 0 305 45
0 45 0 0 50 0 50 -150 0 -150 0 0 -50z"/>
<path d="M1392 763 c4 -273 7 -323 21 -350 23 -43 64 -63 130 -63 66 0 102 24
117 78 6 22 10 165 10 345 l0 307 -50 0 -50 0 -2 -306 c-3 -274 -5 -308 -20
-317 -12 -8 -21 -7 -32 2 -14 12 -16 52 -16 317 l0 304 -56 0 -57 0 5 -317z"/>
<path d="M970 135 c0 -128 1 -135 20 -135 19 0 20 7 20 135 0 128 -1 135 -20
135 -19 0 -20 -7 -20 -135z"/>
<path d="M1147 263 c-16 -15 -6 -33 18 -33 18 0 25 5 25 20 0 20 -28 28 -43
13z"/>
<path d="M464 169 c-13 -14 -18 -36 -18 -74 0 -66 21 -95 71 -95 52 0 73 28
73 98 0 44 -5 63 -18 75 -26 24 -85 22 -108 -4z m76 -69 c0 -46 -4 -62 -16
-67 -22 -8 -34 14 -34 68 0 50 5 59 32 59 15 0 18 -8 18 -60z"/>
<path d="M700 93 c0 -92 1 -94 23 -91 20 3 22 9 25 81 3 68 5 77 22 77 17 0
19 -9 22 -77 3 -72 5 -78 26 -81 21 -3 22 -1 22 81 0 56 -4 88 -13 95 -6 6
-38 10 -70 10 l-57 -1 0 -94z"/>
<path d="M1142 98 c3 -88 4 -93 26 -96 21 -3 22 -1 22 92 l0 96 -25 0 -26 0 3
-92z"/>
<path d="M1310 93 c0 -92 1 -94 23 -91 20 3 22 10 27 78 4 60 8 75 22 78 15 3
18 -7 20 -75 3 -72 5 -78 26 -81 21 -3 22 -1 22 81 0 56 -4 88 -13 95 -6 6
-38 10 -70 10 l-57 -1 0 -94z"/>
<path d="M1577 172 c-25 -27 -23 -133 1 -155 23 -21 76 -22 96 -1 23 22 20 54
-4 54 -11 0 -20 -7 -20 -15 0 -21 -30 -31 -41 -14 -22 36 -11 49 42 49 l51 0
-7 38 c-4 20 -11 43 -17 50 -16 19 -82 15 -101 -6z m71 -35 c3 -12 -3 -17 -22
-17 -28 0 -29 1 -20 25 8 20 38 15 42 -8z"/>
</g>
</svg>
